<svg width="117" height="84" viewBox="0 0 117 84" fill="none" xmlns="http://www.w3.org/2000/svg">
<path d="M25.8052 32.9999C25.8052 42.9411 33.864 50.9999 43.8052 50.9999H70.8052C73.5666 50.9999 75.8052 48.7614 75.8052 45.9999V11.9999C75.8052 6.4771 71.328 1.9999 65.8052 1.9999H30.8052C28.0437 1.9999 25.8052 4.2385 25.8052 6.9999V32.9999Z" fill="#FFF1DA"/>
<path d="M74.3891 46.9413C73.0307 47.2456 71.7077 47.8091 70.5022 48.5965C67.3614 50.5978 65.5341 53.4546 66.421 54.9767C67.308 56.4988 70.5731 56.1095 73.7138 54.1082C74.9356 53.3486 76.021 52.3779 76.9032 51.2559C77.3125 50.7138 77.386 50.0383 77.0908 49.5334L75.9386 47.556C75.6454 47.0495 75.0374 46.8086 74.3891 46.9413Z" fill="#D5D6DB"/>
<path d="M66.5021 19.9482C65.5171 20.169 64.5577 20.5778 63.6834 21.1488C61.4066 22.5996 60.0808 24.671 60.7234 25.7738C61.366 26.8766 63.7345 26.5941 66.0111 25.1434C66.897 24.5923 67.6839 23.8881 68.3237 23.0744C68.6202 22.6815 68.6733 22.1922 68.4593 21.8261L67.6251 20.3943C67.4128 20.0271 66.9722 19.8521 66.5021 19.9482Z" fill="#D5D6DB"/>
<path d="M53.688 21.0787C53.4687 21.0542 53.2349 21.1126 53.0322 21.2421L47.684 24.6503C47.2366 24.9346 47.0576 25.4819 47.2845 25.8731C47.3364 25.9627 47.4075 26.0393 47.4937 26.0983L60.6753 35.1832L78.509 23.8185L53.688 21.0787Z" fill="#029BC5"/>
<path d="M110.065 19.794L61.5329 50.3461L32.8201 61.772L18.177 64.682L16.566 61.945L97.461 11.9985C99.872 10.5036 102.558 9.586 105.246 9.3389C106.424 9.237 107.587 9.2762 108.708 9.455C109.702 9.6057 110.645 9.8964 111.508 10.3185C112.472 10.7967 114.307 10.8519 114.901 11.8047C114.903 11.8032 116.305 16.1776 110.065 19.794Z" fill="#E1E6E9"/>
<path d="M62.1762 46.3036L41.1809 79.774C40.9187 80.244 41.0744 80.77 41.5283 80.949C41.8068 81.059 42.1477 81.016 42.4341 80.834L47.7781 77.444C48.806 76.791 49.7161 75.963 50.4523 75.009L91.169 27.1404L62.1762 46.3036Z" fill="#029BC5"/>
<path d="M9.1966 45.1861C8.8464 45.0664 8.4296 45.1285 8.0778 45.3525L3.6603 48.1659C3.0584 48.549 2.8185 49.2854 3.1244 49.8111C3.1827 49.911 3.2584 49.999 3.3491 50.0714L15.7259 59.9838L28.7389 51.8557L9.1966 45.1861Z" fill="#029BC5"/>
<path d="M19.8743 61.771L13.2128 71.1C13.1152 71.234 13.1381 71.403 13.2641 71.476C13.3549 71.529 13.4789 71.519 13.5797 71.452L17.708 68.836C17.74 68.815 17.7691 68.79 17.7931 68.761L27.5266 56.9261L19.8743 61.771Z" fill="#029BC5"/>
<path d="M107.911 9.8572C106.757 9.6718 105.559 9.63219 104.346 9.73879C103.166 11.3899 102.411 13.2446 102.157 15.118C102.139 15.4943 102.442 15.7652 102.835 15.723C102.957 15.7098 103.079 15.6669 103.188 15.5981L110.796 10.7538C109.906 10.3152 108.935 10.0134 107.911 9.8572Z" fill="#029BC5"/>
<path d="M91.332 18.7653L96.299 15.6284L100.926 23.4974L95.959 26.6343L91.332 18.7653Z" fill="#D5D6DB"/>
<path d="M88.207 21.8775C87.608 22.2567 87.369 22.9855 87.673 23.5052L88.165 24.3472C88.489 24.8536 89.228 24.9427 89.816 24.546C90.376 24.1682 90.602 23.4815 90.332 22.9745L89.84 22.1325C89.536 21.6132 88.805 21.499 88.207 21.8775Z" fill="#3A556A"/>
<path d="M83.742 24.65C83.144 25.0291 82.904 25.7579 83.208 26.2777L83.701 27.1196C84.025 27.6261 84.764 27.7152 85.352 27.3185C85.912 26.9407 86.137 26.254 85.868 25.747L85.375 24.905C85.071 24.3859 84.341 24.2716 83.742 24.65Z" fill="#3A556A"/>
<path d="M79.276 27.4233C78.679 27.803 78.44 28.5309 78.744 29.0501L79.236 29.8921C79.56 30.3986 80.299 30.4876 80.887 30.0909C81.447 29.7131 81.673 29.0265 81.403 28.5195L80.911 27.6775C80.607 27.1578 79.875 27.044 79.276 27.4233Z" fill="#3A556A"/>
<path d="M74.8121 30.1957C74.2142 30.5754 73.9758 31.3033 74.2794 31.8226L74.7717 32.6646C75.0956 33.171 75.8348 33.2601 76.4231 32.8634C76.9829 32.4856 77.2084 31.7989 76.9386 31.2919L76.4463 30.4499C76.1422 29.9304 75.4106 29.8166 74.8121 30.1957Z" fill="#3A556A"/>
<path d="M70.3481 32.9684C69.7499 33.3482 69.5113 34.0764 69.8151 34.5959L70.3077 35.4383C70.6114 35.9575 71.3427 36.0712 71.941 35.6923C72.5394 35.3133 72.7783 34.5851 72.4746 34.0658L71.982 33.2235C71.6791 32.7037 70.9481 32.5892 70.3494 32.9676C70.3489 32.9679 70.3486 32.9681 70.3481 32.9684Z" fill="#3A556A"/>
<path d="M65.8837 35.7408C65.2855 36.1207 65.047 36.8489 65.3508 37.3684L65.8434 38.2107C66.147 38.73 66.8783 38.8437 67.4767 38.4647C68.075 38.0857 68.3139 37.3575 68.0103 36.8383L67.5177 35.9959C67.2148 35.4762 66.4838 35.3617 65.885 35.74C65.8845 35.7404 65.884 35.7407 65.8837 35.7408Z" fill="#3A556A"/>
<path d="M61.4191 38.5134C60.8209 38.8932 60.5824 39.6214 60.8862 40.1409L61.3788 40.9832C61.6832 41.502 62.4148 41.6145 63.0125 41.2351C63.6092 40.8562 63.8476 40.1296 63.5454 39.6109L63.0528 38.7686C62.7492 38.249 62.018 38.1347 61.4191 38.5134Z" fill="#3A556A"/>
<path d="M56.9545 41.2859C56.3563 41.6657 56.1178 42.3939 56.4216 42.9134L56.9142 43.7558C57.2186 44.2746 57.9502 44.3871 58.5479 44.0076C59.1446 43.6288 59.383 42.9021 59.0808 42.3835L58.5882 41.5411C58.2846 41.0215 57.5534 40.9072 56.9545 41.2859Z" fill="#3A556A"/>
<path d="M52.4903 44.0583C51.8921 44.4381 51.6535 45.1663 51.9573 45.6858L52.4499 46.5281C52.7543 47.0469 53.486 47.1595 54.0837 46.78C54.6804 46.4011 54.9188 45.6745 54.6165 45.1559L54.1239 44.3136C53.8201 43.7941 53.0889 43.6798 52.4903 44.0583Z" fill="#3A556A"/>
<path d="M48.0245 46.8315C47.4261 47.2105 47.1872 47.9387 47.4909 48.458L47.4915 48.4591L47.9841 49.3014C48.2885 49.8202 49.0201 49.9328 49.6179 49.5533C50.2146 49.1744 50.453 48.4478 50.1507 47.9291L49.6581 47.0868C49.3546 46.5671 48.6233 46.4528 48.0245 46.8315Z" fill="#3A556A"/>
<path d="M43.5612 49.6032C42.9629 49.9822 42.724 50.7104 43.0276 51.2296L43.0283 51.2307L43.5209 52.073C43.8253 52.5918 44.5569 52.7044 45.1546 52.3249C45.7514 51.9461 45.9898 51.2194 45.6875 50.7008L45.1949 49.8585C44.8911 49.339 44.1599 49.2247 43.5612 49.6032Z" fill="#3A556A"/>
</svg>
